<svg width="800" height="800" viewBox="0 0 800 800" fill="none" xmlns="http://www.w3.org/2000/svg">
<path fill-rule="evenodd" clip-rule="evenodd" d="M167.303 39.7922H545.436L657.189 152.878V699.805H167.303V39.7922Z" fill="white"/>
<path d="M657.189 710.525H167.303C161.381 710.525 156.584 705.728 156.584 699.805V39.7922C156.584 33.8703 161.381 29.0734 167.303 29.0734H545.436C548.297 29.0734 551.05 30.2203 553.056 32.2562L664.816 145.342C666.795 147.35 667.913 150.053 667.913 152.877V699.803C667.914 705.728 663.111 710.525 657.189 710.525ZM178.022 689.087H646.478V157.281L540.956 50.5109H178.022V689.087Z" fill="#4C8CF9"/>
<path d="M689.889 278H200V443H689.889V278Z" fill="#4C8CF9"/>
<path d="M430.402 391.251H418V380.157H430.402V391.251ZM464.503 350.934L476.018 328.745H490.339L472.18 359.779L491.372 391.251H476.462L464.65 368.767L452.84 391.251H438.373L457.123 359.779L438.816 328.745H453.135L464.503 350.934ZM510.121 381.507H537.432V391.251H497.867V328.745H510.122V381.507H510.121ZM577.732 374.912C577.732 372.52 576.847 370.566 575.22 369.068C573.597 367.719 570.642 366.374 566.359 365.023C559.128 362.922 553.523 360.372 549.831 357.376C546.138 354.528 544.216 350.483 544.216 345.387C544.216 340.137 546.434 336.092 550.715 332.795C554.998 329.497 560.46 328 567.102 328C573.892 328 579.355 329.799 583.637 333.398C587.914 336.993 589.985 341.486 589.837 346.885L589.689 347.182H577.732C577.732 344.34 576.847 341.936 574.925 340.137C573.009 338.49 570.347 337.591 566.951 337.591C563.558 337.591 561.051 338.343 559.281 339.84C557.505 341.19 556.621 343.137 556.621 345.388C556.621 347.489 557.507 349.284 559.424 350.634C561.346 351.983 564.743 353.328 569.464 354.831C576.258 356.779 581.273 359.33 584.818 362.474C588.363 365.618 590.133 369.668 590.133 374.765C590.133 380.158 588.068 384.361 583.785 387.506C579.651 390.507 574.189 392 567.399 392C560.756 392 554.848 390.352 549.832 386.754C544.96 383.309 542.447 378.36 542.6 372.072L542.743 371.918H554.705C554.705 375.517 555.884 378.216 558.097 380.011C560.31 381.811 563.412 382.563 567.4 382.563C570.797 382.563 573.304 381.959 575.075 380.461C576.848 379.114 577.732 377.315 577.732 374.912ZM620.983 350.934L632.498 328.745H646.968L628.663 359.779L648 391.251H633.088L621.279 368.767L609.327 391.251H595.005L613.603 359.779L595.447 328.745H609.621L620.983 350.934Z" fill="#FEFEFE"/>
<path d="M258.594 393H244.094L266.188 329H283.625L305.688 393H291.188L275.156 343.625H274.656L258.594 393ZM257.688 367.844H291.938V378.406H257.688V367.844ZM313.391 393V329H326.922V381.844H354.359V393H313.391ZM363.32 393V329H376.852V381.844H404.289V393H363.32Z" fill="white"/>
<path d="M411.6 228.77C411.558 228.77 411.506 228.77 411.456 228.77C389.658 228.734 370.712 220.747 360.781 207.412C357.244 202.666 358.225 195.948 362.975 192.414C367.722 188.878 374.436 189.861 377.973 194.608C383.798 202.43 396.644 207.305 411.492 207.326C411.528 207.326 411.564 207.326 411.598 207.326C426.784 207.326 440.822 202.216 446.536 194.58C450.092 189.841 456.809 188.886 461.542 192.436C466.279 195.984 467.24 202.703 463.692 207.442C453.83 220.603 433.876 228.77 411.6 228.77Z" fill="#4C8CF9"/>
<path d="M224.955 364.333C224.919 364.333 224.883 364.333 224.847 364.333C159.736 363.702 121.103 346.759 110.019 313.98C95.5765 271.264 136.605 215.956 160.716 197.18C165.387 193.544 172.126 194.377 175.761 199.044C179.398 203.719 178.561 210.45 173.894 214.092C153.169 230.231 119.95 276.403 130.331 307.111C140.103 336.019 187.236 342.53 225.056 342.895C230.975 342.953 235.728 347.798 235.67 353.714C235.611 359.6 230.826 364.333 224.955 364.333Z" fill="#4C8CF9"/>
<path fill-rule="evenodd" clip-rule="evenodd" d="M545.436 152.878H657.189L545.436 39.7922V152.878Z" fill="#D4E4FF"/>
<path d="M657.189 163.598H545.437C539.516 163.598 534.719 158.802 534.719 152.88V39.7922C534.719 35.4406 537.344 31.525 541.366 29.8765C545.387 28.2265 550.005 29.1656 553.058 32.2562L664.817 145.342C667.858 148.417 668.747 153.014 667.083 157.006C665.419 161.003 661.519 163.598 657.189 163.598ZM556.153 142.161H631.527L556.153 65.8906V142.161Z" fill="#4C8CF9"/>
<path d="M373.97 770.927C373.383 770.927 372.787 770.884 372.184 770.783L337.014 764.898C331.848 764.028 328.065 759.564 328.065 754.32V699.803C328.065 693.883 332.862 689.086 338.784 689.086C344.708 689.086 349.503 693.883 349.503 699.803V745.244L375.726 749.633C381.565 750.616 385.506 756.136 384.526 761.977C383.653 767.22 379.111 770.927 373.97 770.927Z" fill="#4C8CF9"/>
<path d="M508.203 770.927C507.616 770.927 507.013 770.884 506.413 770.783L471.245 764.898C466.075 764.028 462.297 759.564 462.297 754.32V699.803C462.297 693.883 467.092 689.086 473.014 689.086C478.936 689.086 483.733 693.883 483.733 699.803V745.244L509.952 749.633C515.794 750.616 519.731 756.136 518.756 761.977C517.883 767.22 513.338 770.927 508.203 770.927Z" fill="#4C8CF9"/>
<path fill-rule="evenodd" clip-rule="evenodd" d="M454.489 101.803C464.269 99.064 475.095 103.272 480.3 112.522C486.753 123.662 483.003 137.745 471.969 144.261C460.942 150.562 447.003 146.777 440.751 135.642C435.762 127.025 437.008 116.298 443.047 109.158C445.126 111.889 448.869 112.936 451.995 111.05C455.119 109.159 456.367 105.166 454.489 101.803Z" fill="#4C8CF9"/>
<path fill-rule="evenodd" clip-rule="evenodd" d="M357.517 101.803C367.297 99.064 378.119 103.272 383.531 112.522C389.772 123.662 386.027 137.745 374.997 144.261C364.178 150.562 350.025 146.777 343.78 135.642C338.786 127.025 340.034 116.298 346.07 109.158C348.15 111.889 352.103 112.936 355.019 111.05C358.348 109.159 359.387 105.166 357.517 101.803Z" fill="#4C8CF9"/>
<path fill-rule="evenodd" clip-rule="evenodd" d="M326.715 562.128V580.841H610.372V562.128V530.811H326.715V562.128Z" fill="#D4E4FF"/>
<path d="M610.372 541.528H214.128C208.204 541.528 203.409 536.734 203.409 530.811V480.78C203.409 474.859 208.206 470.062 214.128 470.062H610.372C616.294 470.062 621.081 474.859 621.081 480.78V530.811C621.081 536.734 616.294 541.528 610.372 541.528ZM224.845 520.092H599.644V491.5H224.845V520.092Z" fill="#4C8CF9"/>
<path d="M610.372 591.559H214.128C208.204 591.559 203.409 586.763 203.409 580.842V530.811C203.409 524.891 208.206 520.094 214.128 520.094H610.372C616.294 520.094 621.081 524.891 621.081 530.811V580.842C621.081 586.761 616.294 591.559 610.372 591.559ZM224.845 570.123H599.644V541.528H224.845V570.123Z" fill="#4C8CF9"/>
<path d="M610.372 641.58H214.128C208.204 641.58 203.409 636.786 203.409 630.862V580.841C203.409 574.917 208.206 570.123 214.128 570.123H610.372C616.294 570.123 621.081 574.917 621.081 580.841V630.862C621.081 636.786 616.294 641.58 610.372 641.58ZM224.845 620.145H599.644V591.559H224.845V620.145Z" fill="#4C8CF9"/>
<path d="M497.779 641.58H326.715C320.793 641.58 315.997 636.786 315.997 630.862V480.78C315.997 474.859 320.793 470.062 326.715 470.062H497.779C503.701 470.062 508.497 474.859 508.497 480.78V630.862C508.497 636.786 503.701 641.58 497.779 641.58ZM337.434 620.145H487.061V491.502H337.434V620.145Z" fill="#4C8CF9"/>
</svg>
