<svg width="68" height="68" viewBox="0 0 68 68" fill="none" xmlns="http://www.w3.org/2000/svg">
<g clip-path="url(#clip0_78_123)">
<path d="M63 0H5C2.23858 0 0 2.23858 0 5V63C0 65.7614 2.23858 68 5 68H63C65.7614 68 68 65.7614 68 63V5C68 2.23858 65.7614 0 63 0Z" fill="#4786FF"/>
<path d="M22.1056 37.7273C19.5 34 11.3028 20.6364 7 14C17.7113 17 22.6549 20 28.4225 29C34.5531 38.5664 42.5211 49.0909 46 53C32.5423 50.8182 27.3426 45.2186 22.1056 37.7273Z" stroke="white"/>
<path d="M39.0704 36.8182C37 34 31.8685 25.4242 29 21C36.1408 23 39.4366 25 43.2817 31C47.3687 37.3776 52.6808 44.3939 55 47C46.0282 45.5455 42.6782 41.729 39.0704 36.8182Z" stroke="white"/>
<path d="M52.4225 36.9091C51 35 48.5446 31.2121 47 29C50.8451 30 52.6197 31 54.6901 34C56.8909 37.1888 59.7512 40.697 61 42C56.169 41.2727 54.3 39.4287 52.4225 36.9091Z" stroke="white"/>
</g>
<defs>
<clipPath id="clip0_78_123">
<rect width="68" height="68" fill="white"/>
</clipPath>
</defs>
</svg>
