<svg width="339" height="68" viewBox="0 0 339 68" fill="none" xmlns="http://www.w3.org/2000/svg">
<path d="M85.2017 20.3594V15.6364H113.344V20.3594H101.999V52H96.5298V20.3594H85.2017ZM118.338 52H112.514L125.6 15.6364H131.939L145.025 52H139.201L128.921 22.2415H128.637L118.338 52ZM119.315 37.7599H138.207V42.3764H119.315V37.7599ZM169.816 25.1889C169.627 23.508 168.846 22.206 167.473 21.2827C166.1 20.3475 164.371 19.88 162.288 19.88C160.797 19.88 159.506 20.1167 158.417 20.5902C157.328 21.0518 156.482 21.6911 155.878 22.5078C155.286 23.3127 154.99 24.2301 154.99 25.2599C154.99 26.1241 155.192 26.8698 155.594 27.4972C156.008 28.1245 156.547 28.6513 157.21 29.0774C157.885 29.4917 158.607 29.8409 159.376 30.125C160.145 30.3973 160.885 30.6222 161.596 30.7997L165.147 31.723C166.307 32.0071 167.496 32.3918 168.716 32.8771C169.935 33.3625 171.065 34.0017 172.107 34.7947C173.149 35.5878 173.989 36.5703 174.628 37.7422C175.279 38.9141 175.605 40.3168 175.605 41.9503C175.605 44.0099 175.072 45.8388 174.007 47.4368C172.953 49.0348 171.42 50.2955 169.408 51.2188C167.408 52.142 164.987 52.6037 162.146 52.6037C159.423 52.6037 157.068 52.1716 155.079 51.3075C153.091 50.4434 151.534 49.2183 150.409 47.6321C149.285 46.0341 148.663 44.1402 148.545 41.9503H154.049C154.156 43.2642 154.582 44.3591 155.328 45.2351C156.085 46.0992 157.05 46.7443 158.222 47.1705C159.406 47.5848 160.702 47.7919 162.11 47.7919C163.661 47.7919 165.04 47.5492 166.248 47.0639C167.467 46.5668 168.426 45.8802 169.124 45.0043C169.822 44.1165 170.172 43.0807 170.172 41.897C170.172 40.8198 169.864 39.938 169.248 39.2514C168.645 38.5649 167.822 37.9967 166.78 37.5469C165.75 37.0971 164.584 36.7005 163.282 36.3572L158.985 35.1854C156.074 34.3923 153.765 33.2263 152.061 31.6875C150.368 30.1487 149.522 28.1127 149.522 25.5795C149.522 23.4844 150.09 21.6555 151.226 20.093C152.363 18.5305 153.901 17.3172 155.843 16.4531C157.784 15.5772 159.974 15.1392 162.412 15.1392C164.874 15.1392 167.047 15.5713 168.929 16.4354C170.823 17.2995 172.314 18.4891 173.403 20.0043C174.492 21.5076 175.06 23.2358 175.108 25.1889H169.816ZM182.161 52V15.6364H187.648V33.0014H188.091L203.344 15.6364H210.251L195.584 32.0071L210.304 52H203.699L191.944 35.7536L187.648 40.6896V52H182.161ZM215.364 52V15.6364H228.326C231.155 15.6364 233.499 16.1513 235.357 17.1811C237.215 18.2109 238.606 19.6196 239.53 21.407C240.453 23.1825 240.915 25.183 240.915 27.4084C240.915 29.6456 240.447 31.6579 239.512 33.4453C238.589 35.2209 237.192 36.6295 235.322 37.6712C233.463 38.701 231.125 39.2159 228.308 39.2159H219.395V34.5639H227.811C229.598 34.5639 231.048 34.2562 232.161 33.6406C233.274 33.0133 234.09 32.161 234.611 31.0838C235.132 30.0066 235.393 28.7815 235.393 27.4084C235.393 26.0353 235.132 24.8161 234.611 23.7507C234.09 22.6854 233.268 21.8509 232.143 21.2472C231.031 20.6435 229.563 20.3416 227.74 20.3416H220.851V52H215.364ZM247.347 52V15.6364H270.145V20.3594H252.833V31.4389H268.955V36.1442H252.833V47.277H270.358V52H247.347ZM297.307 25.1889C297.117 23.508 296.336 22.206 294.963 21.2827C293.59 20.3475 291.862 19.88 289.778 19.88C288.287 19.88 286.997 20.1167 285.907 20.5902C284.818 21.0518 283.972 21.6911 283.368 22.5078C282.777 23.3127 282.481 24.2301 282.481 25.2599C282.481 26.1241 282.682 26.8698 283.084 27.4972C283.499 28.1245 284.037 28.6513 284.7 29.0774C285.375 29.4917 286.097 29.8409 286.866 30.125C287.636 30.3973 288.376 30.6222 289.086 30.7997L292.637 31.723C293.797 32.0071 294.987 32.3918 296.206 32.8771C297.425 33.3625 298.555 34.0017 299.597 34.7947C300.639 35.5878 301.479 36.5703 302.118 37.7422C302.769 38.9141 303.095 40.3168 303.095 41.9503C303.095 44.0099 302.562 45.8388 301.497 47.4368C300.443 49.0348 298.911 50.2955 296.898 51.2188C294.898 52.142 292.477 52.6037 289.636 52.6037C286.914 52.6037 284.558 52.1716 282.569 51.3075C280.581 50.4434 279.024 49.2183 277.9 47.6321C276.775 46.0341 276.154 44.1402 276.035 41.9503H281.54C281.646 43.2642 282.072 44.3591 282.818 45.2351C283.576 46.0992 284.54 46.7443 285.712 47.1705C286.896 47.5848 288.192 47.7919 289.601 47.7919C291.151 47.7919 292.53 47.5492 293.738 47.0639C294.957 46.5668 295.916 45.8802 296.614 45.0043C297.313 44.1165 297.662 43.0807 297.662 41.897C297.662 40.8198 297.354 39.938 296.738 39.2514C296.135 38.5649 295.312 37.9967 294.27 37.5469C293.241 37.0971 292.075 36.7005 290.773 36.3572L286.476 35.1854C283.564 34.3923 281.256 33.2263 279.551 31.6875C277.858 30.1487 277.012 28.1127 277.012 25.5795C277.012 23.4844 277.58 21.6555 278.716 20.093C279.853 18.5305 281.392 17.3172 283.333 16.4531C285.274 15.5772 287.464 15.1392 289.903 15.1392C292.365 15.1392 294.537 15.5713 296.419 16.4354C298.313 17.2995 299.804 18.4891 300.893 20.0043C301.982 21.5076 302.55 23.2358 302.598 25.1889H297.307ZM309.651 52V15.6364H315.138V33.0014H315.582L330.834 15.6364H337.741L323.075 32.0071L337.794 52H331.189L319.435 35.7536L315.138 40.6896V52H309.651Z" fill="#4786FF"/>
<g clip-path="url(#clip0_1_9)">
<path d="M63 0H5C2.23858 0 0 2.23858 0 5V63C0 65.7614 2.23858 68 5 68H63C65.7614 68 68 65.7614 68 63V5C68 2.23858 65.7614 0 63 0Z" fill="#4786FF"/>
<path d="M22.1056 37.7273C19.5 34 11.3028 20.6364 7 14C17.7113 17 22.6549 20 28.4225 29C34.5531 38.5664 42.5211 49.0909 46 53C32.5423 50.8182 27.3426 45.2186 22.1056 37.7273Z" stroke="white"/>
<path d="M39.0704 36.8182C37 34 31.8685 25.4242 29 21C36.1408 23 39.4366 25 43.2817 31C47.3687 37.3776 52.6808 44.3939 55 47C46.0282 45.5455 42.6782 41.729 39.0704 36.8182Z" stroke="white"/>
<path d="M52.4225 36.9091C51 35 48.5446 31.2121 47 29C50.8451 30 52.6197 31 54.6901 34C56.8909 37.1888 59.7512 40.697 61 42C56.169 41.2727 54.3 39.4287 52.4225 36.9091Z" stroke="white"/>
</g>
<defs>
<clipPath id="clip0_1_9">
<rect width="68" height="68" fill="white"/>
</clipPath>
</defs>
</svg>
